# Blender v3.6.2 OBJ File: ''
# www.blender.org
mtllib banana_decimated.mtl
o my_mesh_banana.obj.002
v 0.077944 0.023285 0.017813
v -0.042601 0.024383 0.020781
v 0.076563 0.054685 0.008093
v -0.030929 0.041294 0.009250
v -0.101326 0.043636 0.010377
v -0.040690 0.005595 0.012489
v 0.117925 0.050186 -0.004702
v -0.015759 -0.002407 -0.006457
v -0.097913 0.077915 0.004457
v -0.107603 0.113088 0.000814
v -0.111292 0.108272 0.003907
v -0.107461 0.052435 -0.013287
v -0.108500 0.113628 0.003666
v -0.107943 0.113773 0.003468
v -0.025544 0.041426 -0.012477
v -0.108402 0.113768 0.003022
v -0.108289 0.113782 0.003163
v -0.108741 0.114000 0.002551
v -0.114631 0.113545 -0.000274
v -0.106625 0.082724 -0.003335
v 0.092217 0.022091 -0.005481
v 0.078658 0.053383 -0.013853
v 0.087066 0.033573 -0.018696
v -0.081637 0.020687 -0.014813
vt 0.212930 0.288651
vt 0.658043 0.049795
vt 0.721443 0.136814
vt 0.181971 0.227909
vt 0.294131 0.342304
vt 0.862644 0.047209
vt 0.839296 0.857300
vt 0.843169 0.971394
vt 0.833278 0.933524
vt 0.033271 0.481039
vt 0.095513 0.607477
vt 0.466884 0.486860
vt 0.507592 0.557705
vt 0.492569 0.649495
vt 0.510235 0.299500
vt 0.149110 0.760763
vt 0.110776 0.756276
vt 0.258133 0.915314
vt 0.255929 0.914266
vt 0.260669 0.888732
vt 0.139316 0.788984
vt 0.133751 0.785752
vt 0.257161 0.914556
vt 0.113083 0.788227
vt 0.138068 0.791035
vt 0.258170 0.913878
vt 0.139131 0.796275
vt 0.259705 0.918840
vt 0.258845 0.914240
vt 0.137739 0.791526
vt 0.963816 0.508967
vt 0.980926 0.536631
vt 0.966603 0.592598
vt 0.270255 0.917363
vt 0.766082 0.939745
vt 0.787228 0.977066
vt 0.753829 0.975620
vt 0.589924 0.624531
vt 0.671119 0.279667
vt 0.664466 0.629743
vt 0.611795 0.907039
vt 0.648698 0.811351
vt 0.665528 0.862581
vt 0.667075 0.949898
vt 0.667356 0.747335
vt 0.685104 0.701970
vt 0.589999 0.249673
vt 0.355621 0.948544
vt 0.367215 0.852641
vt 0.406072 0.873265
vt 0.484223 0.734946
vt 0.532850 0.972283
vt 0.485912 0.985416
vt 0.778010 0.764283
vt 0.731452 0.854647
vt 0.722383 0.774205
vt 0.693192 0.764326
vt 0.940554 0.598946
vt 0.921762 0.726742
vt 0.887110 0.605600
vt 0.623402 0.774552
vt 0.117653 0.931311
vt 0.087232 0.817855
vt 0.121337 0.850716
vt 0.565531 0.735619
vt 0.829716 0.185621
vt 0.836890 0.574471
vt 0.797934 0.492711
vt 0.881923 0.164096
vt 0.148906 0.927644
vt 0.160135 0.755068
vt 0.340546 0.349958
vt 0.315475 0.657254
vt 0.323109 0.949248
vt 0.300877 0.867145
vt 0.038494 0.686321
vt 0.036929 0.934924
vt 0.018358 0.955797
vt 0.299171 0.618688
vt 0.324235 0.563565
vn -0.0682 -0.0202 0.9975
vn 0.3246 -0.4531 0.8303
vn 0.0871 0.8172 0.5698
vn -0.2238 -0.8019 0.5539
vn 0.1357 0.8231 0.5515
vn 0.9466 0.3201 -0.0384
vn 0.0118 -0.9415 -0.3368
vn -0.6780 -0.3154 0.6639
vn 0.5149 0.5998 0.6125
vn 0.5268 -0.8315 -0.1762
vn 0.7777 0.5809 -0.2404
vn -0.3791 -0.0059 0.9253
vn 0.5521 0.1849 -0.8130
vn 0.5623 0.7689 0.3044
vn -0.0621 0.4782 0.8760
vn -0.1868 -0.9821 0.0255
vn -0.3704 -0.8158 -0.4441
vn -0.7962 -0.5915 0.1272
vn -0.5736 0.7971 -0.1886
vn -0.1953 -0.6631 -0.7226
vn 0.1742 0.6008 0.7802
vn -0.0376 0.7418 -0.6696
vn -0.6812 -0.7308 -0.0435
vn 0.2502 0.9681 -0.0097
vn -0.2793 -0.9376 0.2073
vn 0.7017 -0.5512 0.4513
vn 0.4645 -0.8846 0.0406
vn 0.3648 0.9300 -0.0451
vn 0.1080 -0.9167 -0.3848
vn -0.4597 -0.6553 -0.5993
vn -0.5022 0.2520 -0.8272
vn 0.0364 0.7724 -0.6341
vn -0.7633 -0.0814 -0.6409
vn 0.0578 0.7192 -0.6924
vn 0.2571 -0.2274 -0.9393
usemtl banana2.002
s 1
f 2/1/1 1/2/2 3/3/3
f 1/2/2 2/1/1 6/4/4
f 4/5/5 2/1/1 3/3/3
f 3/3/3 1/2/2 7/6/6
f 1/7/2 6/8/4 8/9/7
f 2/1/1 5/10/8 6/4/4
f 2/1/1 9/11/9 5/10/8
f 4/5/5 9/11/9 2/1/1
f 1/12/2 21/13/10 7/14/6
f 21/13/10 1/12/2 8/15/7
f 10/16/11 11/17/12 9/11/9
f 9/11/9 11/17/12 5/10/8
f 16/18/13 14/19/14 10/20/11
f 14/21/14 13/22/15 11/17/12
f 10/16/11 14/21/14 11/17/12
f 17/23/16 16/18/17 10/20/18
f 19/24/19 17/25/20 14/21/14
f 17/23/21 13/26/15 14/19/14
f 10/20/11 13/26/22 17/23/23
f 18/27/24 19/24/19 14/21/14
f 18/28/24 14/19/14 16/18/13
f 17/23/25 19/29/26 16/18/27
f 13/22/15 16/30/28 19/24/19
f 13/22/15 19/24/19 11/17/12
f 13/26/22 18/28/24 16/18/29
f 5/31/8 24/32/30 6/33/4
f 13/26/22 10/20/11 18/28/24
f 10/20/11 19/34/19 18/28/24
f 10/35/11 9/36/9 20/37/31
f 22/38/32 4/39/5 3/40/3
f 5/41/8 11/42/12 20/43/31
f 12/44/33 5/41/8 20/43/31
f 20/43/31 11/45/12 19/46/19
f 22/38/32 15/47/34 4/39/5
f 24/48/30 8/49/7 6/50/4
f 4/51/5 20/52/31 9/53/9
f 5/54/8 12/55/33 24/56/30
f 19/46/19 10/57/11 20/43/31
f 23/58/35 7/59/6 21/60/10
f 7/61/6 22/38/32 3/40/3
f 7/62/6 23/63/35 22/64/32
f 20/52/31 4/51/5 15/65/34
f 15/66/34 22/67/32 23/68/35
f 23/58/35 21/60/10 8/69/7
f 23/70/35 8/71/7 24/72/30
f 15/73/34 23/74/35 24/75/30
f 15/76/34 12/77/33 20/78/31
f 15/73/34 24/79/30 12/80/33
