# Blender v3.6.2 OBJ File: ''
# www.blender.org
mtllib teddy_decimated.mtl
o my_mesh_teddy
v -6.936926 11.618765 7.324188
v -6.125257 16.881300 2.070314
v -11.255295 5.193392 4.642758
v -9.542231 6.791505 -4.058523
v -2.168643 3.007220 -4.808492
v -0.360001 4.234962 9.467773
v 8.164820 4.751554 6.250976
v 8.990730 3.400016 -1.525845
v 6.283525 15.529267 4.693225
v 4.912537 13.350003 -3.151714
v 4.198703 0.215825 3.040615
v 9.673862 -5.401025 5.735105
v -2.748197 -5.779246 8.802562
v -10.824235 -15.504708 -2.976135
v 8.802959 -15.278091 -5.312033
v -8.823715 -13.366209 5.108725
v -2.407734 -9.579974 -11.688726
v 0.426982 -20.669590 1.746636
v -5.938469 0.242636 2.426922
v 10.074519 -0.932362 -3.448267
v 11.640316 0.906648 4.844114
v -10.811258 -1.782746 0.067988
v 17.700354 -6.964813 0.678542
v -2.377407 -13.633716 8.074144
v 8.075057 -15.732934 7.668783
v -5.372824 -14.503344 13.060939
v -6.054771 -19.132792 5.579786
vn -0.3494 -0.6689 0.6561
vn -0.7138 -0.6503 -0.2600
vn -0.4333 -0.7432 -0.5097
vn -0.8441 0.4384 0.3088
vn -0.9188 0.3788 -0.1113
vn 0.2866 -0.7077 0.6458
vn 0.6653 -0.7204 0.1959
vn 0.3363 0.1920 0.9220
vn 0.9807 0.1817 0.0726
vn 0.9094 0.3317 -0.2511
vn 0.2833 -0.0405 -0.9582
vn -0.4103 -0.1024 0.9062
vn 0.0837 0.3458 0.9346
vn -0.0707 0.7102 0.7004
vn 0.1641 0.9427 -0.2906
vn -0.2025 0.5576 -0.8050
vn -0.0142 0.1676 -0.9857
vn -0.0403 0.7163 0.6967
vn 0.1818 0.5637 0.8057
vn -0.5348 0.4642 0.7061
vn -0.6750 0.1940 0.7119
vn -0.9657 -0.0553 0.2536
vn 0.1618 -0.8810 -0.4446
vn -0.0333 -0.8579 0.5128
vn -0.0400 0.9771 -0.2091
vn -0.2487 0.2111 0.9453
vn -0.4175 -0.8098 -0.4123
vn 0.6841 0.6741 -0.2787
vn 0.5263 -0.0441 0.8491
vn -0.0424 -0.3890 0.9202
vn 0.2331 0.1439 0.9617
vn 0.0203 -0.0914 0.9956
vn 0.1210 -0.8337 0.5388
vn -0.0300 0.9876 0.1542
vn -0.4192 -0.1034 0.9020
vn 0.7139 -0.6227 0.3202
vn -0.3374 -0.9195 -0.2018
vn -0.0960 -0.7775 -0.6215
vn -0.6069 0.3900 -0.6925
vn -0.7584 0.1418 -0.6362
vn -0.4294 0.8953 0.1183
vn 0.9961 -0.0884 0.0005
vn 0.2433 0.4617 -0.8530
vn -0.8648 -0.3894 0.3170
vn -0.8642 -0.3889 0.3194
vn 0.2948 0.9504 0.0988
vn 0.5418 -0.8405 0.0009
vn 0.5181 0.0649 -0.8529
vn 0.9884 -0.1435 0.0504
vn -0.0341 -0.7743 -0.6319
usemtl Default_OBJ
s off
f 3//1 19//1 6//1
f 4//2 19//2 3//2
f 5//3 19//3 4//3
f 2//4 3//4 1//4
f 4//5 3//5 2//5
f 11//6 7//6 6//6
f 11//7 8//7 7//7
f 6//8 7//8 9//8
f 8//9 9//9 7//9
f 8//10 10//10 9//10
f 10//11 8//11 5//11
f 6//12 1//12 3//12
f 9//13 1//13 6//13
f 2//14 1//14 9//14
f 10//15 2//15 9//15
f 10//16 4//16 2//16
f 5//17 4//17 10//17
f 11//18 19//18 13//18
f 13//19 12//19 11//19
f 22//20 13//20 19//20
f 13//21 22//21 16//21
f 22//22 14//22 16//22
f 5//23 8//23 11//23
f 19//24 11//24 6//24
f 11//25 21//25 20//25
f 11//26 12//26 21//26
f 12//27 20//27 23//27
f 20//28 21//28 23//28
f 12//29 23//29 21//29
f 25//30 24//30 27//30
f 12//31 13//31 25//31
f 25//32 13//32 24//32
f 18//33 25//33 27//33
f 24//34 16//34 26//34
f 16//35 24//35 13//35
f 27//36 24//36 26//36
f 14//37 18//37 27//37
f 14//38 17//38 18//38
f 22//39 5//39 17//39
f 22//40 17//40 14//40
f 22//41 19//41 5//41
f 20//42 12//42 15//42
f 17//43 5//43 20//43
f 14//44 27//44 16//44
f 16//45 27//45 26//45
f 11//46 20//46 5//46
f 18//47 15//47 25//47
f 17//48 20//48 15//48
f 15//49 12//49 25//49
f 18//50 17//50 15//50
