# Blender v3.6.2 OBJ File: ''
# www.blender.org
mtllib foundation_decimated.mtl
o my_mesh_foundation
v 24.920912 -12.649926 6.087188
v 24.856838 12.661543 6.066175
v -25.167805 12.651324 6.103428
v -25.114706 -12.661696 6.015829
v -25.189638 -12.646940 -5.955532
v 24.845247 -12.665223 -5.860260
v -25.132153 12.659364 -5.878724
v -20.716055 -12.642159 2.145774
v 0.921744 -12.352519 1.473812
v -21.302435 -12.699343 -2.145925
v -21.557808 -12.699790 2.744894
v -16.290167 -11.939728 2.728886
v -14.152643 -12.160643 2.226563
v -21.141895 -11.927599 2.277388
v -18.214134 -11.937790 2.512557
v -15.640072 -12.706857 2.902515
v -12.835320 -12.703526 -0.103818
v -13.584376 -12.726290 -0.034634
v -16.474438 -12.705235 1.662172
v -17.056467 -11.880628 1.646157
v -17.536085 -12.698034 1.465014
v -13.265550 -11.963965 -0.401209
v -17.285986 -12.056519 -1.058917
v -16.945055 -12.693330 -1.802998
v -13.874231 -12.481077 -2.001219
v -15.706491 -12.030128 -1.993361
v 24.948832 12.474105 -5.896499
vn 0.5757 -0.5806 0.5758
vn 0.5735 0.5837 0.5748
vn -0.5771 0.5774 0.5775
vn -0.5749 -0.5785 0.5786
vn -0.5749 0.5803 -0.5768
vn -0.5781 -0.5750 -0.5789
vn 0.5806 0.5718 -0.5797
vn 0.0247 -0.8972 -0.4409
vn -0.0002 -0.9999 -0.0124
vn 0.5721 -0.5831 -0.5768
vn -0.5060 -0.7918 0.3421
vn -0.0010 -1.0000 0.0011
vn 0.3044 -0.9521 0.0291
vn 0.3121 -0.5950 -0.7407
vn -0.0113 -0.9730 -0.2306
vn 0.3345 -0.9415 -0.0413
vn -0.9852 -0.1638 -0.0514
vn 0.2211 -0.9669 -0.1270
vn 0.4053 -0.9053 -0.1273
vn -0.3308 -0.9435 0.0178
vn -0.1128 -0.9754 0.1893
vn -0.3684 -0.7758 0.5123
vn 0.5825 -0.8050 -0.1124
vn 0.7286 -0.6535 0.2053
vn -0.3450 -0.9376 -0.0438
vn 0.2769 -0.9288 0.2461
vn 0.0487 -0.7130 0.6995
usemtl Default_OBJ.016
s 1
f 1//1 2//2 3//3
f 1//1 3//3 4//4
f 3//3 7//5 5//6
f 3//3 27//7 7//5
f 2//2 1//1 27//7
f 2//2 27//7 3//3
f 4//4 16//8 9//9
f 1//1 6//10 27//7
f 4//4 3//3 5//6
f 4//4 8//11 16//8
f 4//4 9//9 1//1
f 1//1 9//9 6//10
f 4//4 5//6 10//12
f 4//4 11//13 8//11
f 4//4 10//12 11//13
f 16//8 12//14 13//15
f 12//14 20//16 13//15
f 15//17 11//13 14//18
f 8//11 21//19 16//8
f 15//17 8//11 11//13
f 14//18 11//13 10//12
f 9//9 16//8 13//15
f 9//9 17//20 25//21
f 9//9 13//15 17//20
f 12//14 16//8 21//19
f 13//15 19//22 18//23
f 12//14 21//19 20//16
f 13//15 20//16 19//22
f 14//18 8//11 15//17
f 19//22 23//24 18//23
f 19//22 20//16 23//24
f 13//15 22//25 17//20
f 20//16 21//19 23//24
f 13//15 18//23 22//25
f 23//24 21//19 24//26
f 21//19 8//11 24//26
f 8//11 14//18 10//12
f 8//11 10//12 24//26
f 23//24 26//27 18//23
f 22//25 25//21 17//20
f 22//25 18//23 26//27
f 22//25 26//27 25//21
f 23//24 24//26 26//27
f 24//26 10//12 5//6
f 9//9 5//6 6//10
f 25//21 5//6 9//9
f 26//27 24//26 25//21
f 25//21 24//26 5//6
f 5//6 7//5 27//7
f 5//6 27//7 6//10
