####
#
# OBJ File Generated by Meshlab
#
####
# Object L_Chamfered.obj
#
# Vertices: 63
# Faces: 122
#
####
vn 1.837090 1.178436 5.400315
v -8.416767 0.690757 10.634831
vn 4.766254 2.547895 2.271700
v -3.585552 4.994300 4.284831
vn 1.921475 1.034295 5.400706
v -9.160244 1.953370 10.634831
vn 0.661705 2.079488 5.400643
v 1.844498 -7.174004 10.634831
vn 2.067608 4.993464 2.271629
v 2.754766 -0.752232 4.284831
vn 0.818300 2.022850 5.400772
v 0.466187 -6.676797 10.634831
vn -1.545931 -1.545931 4.662654
v -11.435154 -8.068962 10.634831
vn -1.545931 1.545930 4.662657
v -11.435154 4.631038 10.634831
vn -2.246307 -2.246307 1.351022
v -17.785152 -14.418962 4.284831
vn 0.334511 2.157685 5.399456
v 4.695177 -7.843893 10.634831
vn 0.499745 2.125328 5.399618
v 3.256947 -7.563805 10.634831
vn 2.137318 2.784573 4.453464
v -7.882679 7.875321 7.390550
vn -2.246307 2.246307 1.351022
v -17.785152 10.981038 4.284831
vn 0.870420 0.000000 3.962281
v 26.664846 -8.068962 10.634831
vn 0.131533 5.383778 2.246577
v 7.614847 -1.718962 4.284831
vn 0.041992 -0.019636 4.461717
v 7.614847 -8.068962 10.634831
vn 0.167196 2.176322 5.400153
v 6.150681 -8.012611 10.634831
vn 1.119916 1.874425 5.399416
v -2.155655 -5.372548 10.634831
vn 1.260733 1.782140 5.399904
v -3.383675 -4.573221 10.634831
vn 1.319611 1.945999 4.812182
v -10.345665 4.631038 10.634831
vn 1.569625 5.171488 2.271788
v 3.928232 -1.172104 4.284831
vn 1.741496 1.317004 5.399499
v -7.578442 -0.510980 10.634831
vn 4.493699 3.001798 2.272169
v -2.944817 3.925296 4.284831
vn 2.546970 4.765687 2.272679
v 1.628109 -0.219361 4.284831
vn 3.002456 4.492782 2.272582
v 0.559105 0.421374 4.284831
vn 0.971973 1.954804 5.399789
v -0.869831 -6.075126 10.634831
vn 1.393366 1.679363 5.400729
v -4.546627 -3.681875 10.634831
vn 0.529113 5.377954 2.272337
v 6.370029 -1.657807 4.284831
vn 1.054298 5.299637 2.272790
v 5.137199 -1.474935 4.284831
vn 1.517758 1.568242 5.400456
v -5.637630 -2.703782 10.634831
vn 3.428961 4.177491 2.271677
v -0.441948 1.163806 4.284831
vn 3.820850 3.821895 2.272007
v -1.365410 2.000783 4.284831
vn 1.995822 0.884124 5.400012
v -9.804482 3.269393 10.634831
vn 1.634794 1.447251 5.399548
v -6.650234 -1.644728 10.634831
vn 4.176912 3.427953 2.272814
v -2.202385 2.924243 4.284831
vn 4.992262 2.068378 2.272482
v -4.118423 6.120959 4.284831
vn 5.173858 1.567535 2.270092
v -4.538296 7.294423 4.284831
vn 2.246307 -2.246307 1.351022
v 33.014847 -14.418962 4.284831
vn 2.246307 2.246307 1.351022
v 33.014847 -1.718962 4.284831
vn 5.303167 1.054478 2.269120
v -4.841125 8.503392 4.284831
vn 2.268204 2.391919 1.373953
v -5.085152 10.981038 4.284831
vn 5.417770 0.507644 2.232402
v -5.023998 9.736220 4.284831
vn 0.307559 3.122699 -3.239767
v 6.370029 -1.657807 -14.765168
vn 0.612156 3.077516 -3.239768
v 5.137199 -1.474935 -14.765168
vn 1.200788 2.898956 -3.239769
v 2.754766 -0.752232 -14.765168
vn 2.608993 1.743272 -3.239768
v -2.944817 3.925296 -14.765168
vn 1.990605 2.425559 -3.239767
v -0.441948 1.163806 -14.765168
vn 2.218765 2.218765 -3.239768
v -1.365410 2.000783 -14.765168
vn 2.425559 1.990605 -3.239767
v -2.202385 2.924243 -14.765168
vn 0.910857 3.002695 -3.239767
v 3.928232 -1.172104 -14.765168
vn 1.479153 2.767300 -3.239766
v 1.628109 -0.219361 -14.765168
vn 2.767300 1.479153 -3.239766
v -3.585552 4.994300 -14.765168
vn 2.898956 1.200788 -3.239768
v -4.118423 6.120959 -14.765168
vn 3.002696 0.910856 -3.239768
v -4.538296 7.294423 -14.765168
vn -1.570796 -1.570796 -1.570784
v -17.785152 -14.418962 -14.765168
vn 3.077517 0.612154 -3.239767
v -4.841125 8.503392 -14.765168
vn 1.570796 -1.570796 -1.570796
v 33.014847 -14.418962 -14.765168
vn 3.122699 0.307558 -3.239768
v -5.023998 9.736220 -14.765168
vn 1.568904 1.647871 -1.619883
v -5.085152 10.981038 -14.765168
vn 1.743272 2.608993 -3.239768
v 0.559105 0.421374 -14.765168
vn -1.570796 1.570796 -1.570797
v -17.785152 10.981038 -14.765168
vn 1.570796 1.570796 -1.570796
v 33.014847 -1.718962 -14.765168
vn 0.077076 3.139700 -3.190680
v 7.614847 -1.718962 -14.765168
# 63 vertices, 0 vertices normals

f 1//1 2//2 3//3
f 4//4 5//5 6//6
f 7//7 8//8 9//9
f 7//7 10//10 11//11
f 8//8 12//12 13//13
f 14//14 15//15 16//16
f 17//17 10//10 7//7
f 18//18 19//19 7//7
f 8//8 20//20 12//12
f 4//4 7//7 11//11
f 11//11 21//21 4//4
f 22//22 23//23 1//1
f 18//18 24//24 25//25
f 17//17 16//16 15//15
f 18//18 7//7 26//26
f 7//7 3//3 8//8
f 1//1 7//7 22//22
f 7//7 19//19 27//27
f 10//10 28//28 29//29
f 30//30 31//31 32//32
f 11//11 29//29 21//21
f 4//4 6//6 7//7
f 17//17 28//28 10//10
f 30//30 27//27 31//31
f 33//33 3//3 2//2
f 34//34 35//35 22//22
f 20//20 33//33 36//36
f 20//20 36//36 37//37
f 20//20 37//37 12//12
f 18//18 26//26 24//24
f 26//26 6//6 5//5
f 8//8 33//33 20//20
f 1//1 23//23 2//2
f 4//4 21//21 5//5
f 17//17 15//15 28//28
f 1//1 3//3 7//7
f 7//7 34//34 22//22
f 30//30 7//7 27//27
f 19//19 31//31 27//27
f 16//16 7//7 9//9
f 16//16 9//9 38//38
f 16//16 38//38 14//14
f 14//14 38//38 39//39
f 34//34 30//30 32//32
f 34//34 32//32 35//35
f 7//7 6//6 26//26
f 22//22 35//35 23//23
f 17//17 7//7 16//16
f 30//30 34//34 7//7
f 10//10 29//29 11//11
f 8//8 13//13 9//9
f 3//3 33//33 8//8
f 18//18 25//25 19//19
f 19//19 25//25 31//31
f 14//14 39//39 15//15
f 26//26 5//5 24//24
f 33//33 2//2 36//36
f 12//12 37//37 40//40
f 12//12 41//41 13//13
f 12//12 42//42 41//41
f 12//12 40//40 42//42
f 28//28 15//15 43//43
f 29//29 28//28 44//44
f 5//5 21//21 45//45
f 23//23 35//35 46//46
f 31//31 25//25 47//47
f 32//32 31//31 48//48
f 35//35 32//32 49//49
f 21//21 29//29 50//50
f 24//24 5//5 51//51
f 2//2 23//23 52//52
f 36//36 2//2 53//53
f 37//37 36//36 54//54
f 13//13 55//55 9//9
f 40//40 37//37 56//56
f 9//9 55//55 57//57
f 9//9 57//57 38//38
f 42//42 40//40 58//58
f 42//42 58//58 59//59
f 25//25 24//24 60//60
f 42//42 59//59 41//41
f 41//41 59//59 61//61
f 41//41 61//61 13//13
f 39//39 62//62 63//63
f 39//39 63//63 15//15
f 40//40 56//56 58//58
f 37//37 54//54 56//56
f 36//36 53//53 54//54
f 2//2 52//52 53//53
f 23//23 46//46 52//52
f 35//35 49//49 46//46
f 32//32 48//48 49//49
f 31//31 47//47 48//48
f 25//25 60//60 47//47
f 24//24 51//51 60//60
f 5//5 45//45 51//51
f 21//21 50//50 45//45
f 29//29 44//44 50//50
f 28//28 43//43 44//44
f 13//13 61//61 55//55
f 38//38 62//62 39//39
f 38//38 57//57 62//62
f 15//15 63//63 43//43
f 44//44 55//55 50//50
f 55//55 45//45 50//50
f 51//51 45//45 55//55
f 55//55 47//47 60//60
f 48//48 47//47 55//55
f 48//48 55//55 49//49
f 55//55 46//46 49//49
f 52//52 46//46 55//55
f 52//52 55//55 61//61
f 52//52 61//61 53//53
f 59//59 58//58 61//61
f 54//54 61//61 56//56
f 61//61 58//58 56//56
f 53//53 61//61 54//54
f 51//51 55//55 60//60
f 63//63 55//55 43//43
f 55//55 44//44 43//43
f 57//57 55//55 63//63
f 57//57 63//63 62//62
# 122 faces, 0 coords texture

# End of File
