# Blender v3.6.2 OBJ File: ''
# www.blender.org
mtllib Bowl_decimated.mtl
o my_mesh_Bowl.001
v 0.864179 -3.792991 -2.563301
v -2.914960 -4.066668 1.478850
v 7.272342 -5.687829 18.966528
v -20.585161 -5.088040 2.745621
v -16.496086 -5.662430 -12.038751
v -18.712246 0.918608 -0.490040
v -13.618102 -1.856553 -8.974195
v 0.283592 -5.394744 -21.204451
v -2.530552 -1.096794 -16.864952
v -9.675598 7.322433 -16.651436
v -13.125883 7.493213 13.764125
v -3.039803 -2.026046 16.505260
v -8.949965 -5.454486 18.775587
v -5.299886 7.093517 19.675436
v 1.782568 -3.601431 3.341151
v 19.322056 -5.086977 8.490921
v 14.510655 -2.026280 -9.180503
v 4.993912 7.083436 -19.786703
v 11.931468 7.468125 -13.471534
v 17.278477 -5.212080 -11.543029
v 18.856598 7.422605 -8.001070
v 13.587484 -1.653137 9.313640
v 9.016743 7.313592 16.461611
v 17.327143 7.391437 6.007957
vn -0.8538 -0.5047 0.1278
vn -0.6684 -0.5830 -0.4619
vn -0.3632 -0.6377 0.6793
vn 0.9354 -0.1300 -0.3289
vn -0.3568 -0.1014 0.9287
vn -0.4294 0.8878 -0.1654
vn -0.5607 0.8091 -0.1763
vn 0.5967 0.7020 0.3888
vn -0.0020 -0.6260 -0.7798
vn -0.4590 0.8863 0.0613
vn -0.1595 0.6203 0.7680
vn 0.3222 0.9272 0.1909
vn 0.6374 -0.6315 -0.4415
vn 0.7710 -0.5455 0.3286
vn 0.2797 -0.6373 0.7181
vn 0.0182 0.6017 0.7985
vn -0.1479 0.9744 0.1694
vn 0.2120 0.6185 -0.7566
vn 0.7235 0.6313 -0.2793
vn -0.6802 0.6123 0.4030
vn 0.1569 0.9377 0.3099
vn -0.6120 0.6810 -0.4021
vn -0.9061 0.3544 -0.2309
vn 0.1602 0.6217 -0.7667
usemtl Default_OBJ.009
s 1
f 4//1 5//2 13//3
f 5//2 2//4 13//3
f 5//2 1//5 2//4
f 10//6 5//2 6//7
f 6//7 7//8 10//6
f 8//9 5//2 10//6
f 2//4 1//5 7//8
f 6//7 4//1 11//10
f 14//11 23//12 11//10
f 1//5 8//9 20//13
f 16//14 3//15 20//13
f 10//6 9//16 19//17
f 20//13 8//9 18//18
f 21//19 20//13 18//18
f 19//17 17//20 24//21
f 16//14 20//13 21//19
f 22//22 15//23 12//24
f 22//22 1//5 15//23
f 24//21 22//22 23//12
f 23//12 16//14 24//21
f 24//21 16//14 21//19
f 1//5 5//2 8//9
f 13//3 2//4 3//15
f 6//7 5//2 4//1
f 10//6 7//8 9//16
f 7//8 17//20 9//16
f 1//5 17//20 7//8
f 18//18 8//9 10//6
f 12//24 7//8 6//7
f 11//10 4//1 13//3
f 11//10 12//24 6//7
f 12//24 2//4 7//8
f 11//10 13//3 14//11
f 12//24 15//23 2//4
f 23//12 12//24 11//10
f 3//15 1//5 20//13
f 15//23 3//15 2//4
f 15//23 1//5 3//15
f 10//6 19//17 18//18
f 19//17 9//16 17//20
f 19//17 21//19 18//18
f 24//21 21//19 19//17
f 14//11 13//3 3//15
f 14//11 3//15 23//12
f 22//22 17//20 1//5
f 23//12 3//15 16//14
f 23//12 22//22 12//24
f 24//21 17//20 22//22
