# Blender v3.6.2 OBJ File: ''
# www.blender.org
mtllib Bridge_decimated.mtl
o my_mesh_Bridge.001
v -24.746172 -13.888150 -9.197727
v -16.516695 -14.194991 -8.844193
v -14.202888 -6.511648 -9.188326
v -10.301050 -1.759630 -9.125278
v -24.923262 -14.053151 9.106370
v -24.924873 10.377559 -9.296855
v -24.736113 10.198434 9.307179
v -16.237120 -14.049721 8.925680
v -14.853995 -7.810615 9.212214
v -10.853106 -2.424358 9.124020
v -3.695189 1.584044 -8.994620
v -4.846813 1.088077 9.158541
v 11.305577 -3.030194 -8.891910
v 16.448246 -14.221365 -8.871697
v 14.462624 -6.463335 -9.233619
v 24.947598 -13.872790 -9.139962
v 24.720007 -14.053638 9.155680
v 11.437868 -3.128060 8.899966
v 16.245977 -14.033346 8.940029
v 14.816804 -8.088077 8.853650
v 15.395317 -6.200500 9.531075
v 6.718964 1.816233 -9.494400
v 6.094404 0.471946 -8.897022
v 24.734201 10.181459 -9.316202
v 0.135021 1.579740 8.833466
v 6.167565 0.848581 9.094091
v 24.918207 10.378165 9.299315
vn 0.5929 -0.2799 0.7551
vn 0.5177 -0.6421 0.5654
vn 0.4859 -0.6705 -0.5607
vn -0.5791 -0.5789 0.5741
vn -0.5785 0.5772 -0.5763
vn -0.5758 -0.5680 -0.5881
vn -0.5720 0.5737 0.5862
vn 0.5793 -0.3168 -0.7511
vn 0.4418 -0.4953 0.7480
vn 0.4146 -0.5035 -0.7580
vn 0.0931 -0.6754 -0.7315
vn -0.0534 -0.1404 -0.9887
vn 0.2043 -0.6268 0.7519
vn 0.5784 0.5803 0.5734
vn -0.2374 -0.5992 0.7646
vn -0.4906 -0.6633 -0.5651
vn -0.5125 -0.6512 0.5598
vn -0.5448 -0.3227 -0.7740
vn 0.5877 -0.5644 -0.5797
vn -0.6982 -0.7159 0.0006
vn -0.8004 -0.3137 0.5109
vn -0.1496 -0.0955 0.9841
vn -0.6710 -0.7414 0.0084
vn -0.2721 -0.7590 -0.5915
vn -0.0234 -0.8671 -0.4976
vn 0.5746 0.5741 -0.5833
vn 0.5720 -0.5849 0.5750
usemtl Default_OBJ.010
s 1
f 9//1 8//2 2//3
f 5//4 6//5 1//6
f 5//4 7//7 6//5
f 3//8 9//1 2//3
f 10//9 9//1 3//8
f 9//1 7//7 5//4
f 9//1 5//4 8//2
f 4//10 11//11 10//9
f 6//5 22//12 11//11
f 7//7 10//9 12//13
f 27//14 12//13 26//15
f 14//16 19//17 15//18
f 15//18 16//19 14//16
f 22//12 15//18 13//20
f 19//17 20//21 15//18
f 21//22 20//21 19//17
f 20//21 18//23 13//20
f 21//22 18//23 20//21
f 11//11 23//24 25//25
f 23//24 22//12 13//20
f 23//24 13//20 26//15
f 27//14 16//19 24//26
f 21//22 26//15 18//23
f 27//14 21//22 17//27
f 8//2 5//4 2//3
f 17//27 19//17 14//16
f 2//3 5//4 1//6
f 1//6 3//8 2//3
f 10//9 7//7 9//1
f 1//6 6//5 3//8
f 6//5 11//11 4//10
f 10//9 11//11 12//13
f 27//14 24//26 6//5
f 3//8 6//5 4//10
f 12//13 11//11 25//25
f 25//25 26//15 12//13
f 27//14 6//5 7//7
f 27//14 7//7 12//13
f 15//18 24//26 16//19
f 16//19 17//27 14//16
f 27//14 17//27 16//19
f 17//27 21//22 19//17
f 15//18 20//21 13//20
f 11//11 22//12 23//24
f 6//5 24//26 22//12
f 22//12 24//26 15//18
f 25//25 23//24 26//15
f 26//15 13//20 18//23
f 21//22 27//14 26//15
f 3//8 4//10 10//9
