# Blender v3.6.2 OBJ File: ''
# www.blender.org
mtllib cylinder_long_decimated.mtl
o my_mesh_cylinder_long.001
v -6.895677 -0.391734 31.590971
v 1.164854 6.906015 31.397772
v 0.092265 -7.036842 31.519289
v -6.243054 2.911341 31.615826
v -2.274213 6.504249 31.531591
v 3.856999 5.672377 31.603405
v 6.487355 -2.456696 31.573305
v -4.187863 -5.536475 31.580479
v 6.776445 0.953203 31.642839
v 4.018710 -5.683185 31.528584
v 6.088554 3.472729 31.319168
v -4.560036 5.352072 31.210033
v -6.101025 -3.373774 31.320436
v 6.841693 -1.225217 -31.677532
v 5.065438 -4.833972 -31.356438
v 2.504429 -6.406375 -31.559553
v 0.572222 -7.011102 -31.152884
v -2.579122 -6.427388 -31.599203
v -5.493073 -4.236897 -31.416241
v -6.799973 -1.679454 -31.267855
v -6.850305 0.351608 -31.668983
v -6.239347 3.132419 -31.338778
v -3.774919 5.808171 -31.626833
v -0.342480 7.020008 -31.232382
v 2.207108 6.549180 -31.533066
v 4.903797 4.830491 -31.611639
v 6.544831 2.610800 -31.223148
vn 0.7335 0.0706 0.6760
vn -0.7505 -0.0319 0.6601
vn 0.7081 -0.2817 0.6475
vn -0.4236 -0.6239 0.6567
vn -0.6834 0.2967 0.6670
vn 0.1213 0.8105 0.5730
vn -0.2212 0.7181 0.6599
vn 0.4186 0.6130 0.6701
vn 0.0013 -0.7748 0.6322
vn 0.4456 -0.6240 0.6419
vn 0.7477 0.4457 0.4923
vn -0.5844 0.6739 0.4519
vn -0.7584 -0.4067 0.5093
vn 0.0463 -0.9176 -0.3949
vn 0.2963 -0.6797 -0.6710
vn -0.2984 -0.6917 -0.6577
vn -0.6201 -0.5081 -0.5977
vn -0.8599 -0.2461 -0.4472
vn -0.7256 0.0603 -0.6854
vn -0.7618 0.4042 -0.5063
vn -0.4101 0.6315 -0.6581
vn -0.0700 0.8720 -0.4844
vn 0.2650 0.7156 -0.6463
vn 0.5121 0.5406 -0.6674
vn 0.8299 0.3048 -0.4673
vn 0.6177 -0.5666 -0.5454
vn 0.7400 -0.1407 -0.6577
usemtl Default_OBJ.012
s 1
f 9//1 1//2 7//3
f 1//2 8//4 7//3
f 4//5 1//2 9//1
f 2//6 5//7 6//8
f 4//5 6//8 5//7
f 8//4 3//9 10//10
f 7//3 8//4 10//10
f 9//1 6//8 4//5
f 6//8 9//1 11//11
f 4//5 5//7 12//12
f 8//4 1//2 13//13
f 3//9 17//14 16//15
f 3//9 18//16 17//14
f 8//4 19//17 18//16
f 13//13 20//18 19//17
f 1//2 21//19 20//18
f 4//5 22//20 21//19
f 12//12 23//21 22//20
f 5//7 24//22 23//21
f 2//6 25//23 24//22
f 6//8 26//24 25//23
f 11//11 27//25 26//24
f 10//10 16//15 15//26
f 9//1 14//27 27//25
f 7//3 15//26 14//27
f 11//11 9//1 27//25
f 6//8 11//11 26//24
f 2//6 6//8 25//23
f 5//7 2//6 24//22
f 12//12 5//7 23//21
f 4//5 12//12 22//20
f 1//2 4//5 21//19
f 13//13 1//2 20//18
f 8//4 13//13 19//17
f 3//9 8//4 18//16
f 10//10 3//9 16//15
f 7//3 10//10 15//26
f 9//1 7//3 14//27
f 17//14 18//16 16//15
f 24//22 25//23 23//21
f 27//25 14//27 26//24
f 15//26 16//15 14//27
f 20//18 21//19 19//17
f 22//20 23//21 21//19
f 19//17 21//19 18//16
f 14//27 21//19 26//24
f 26//24 23//21 25//23
f 21//19 23//21 26//24
f 18//16 21//19 14//27
f 18//16 14//27 16//15
