# Blender v3.6.2 OBJ File: ''
# www.blender.org
mtllib Nut_decimated.mtl
o my_mesh_Nut
v -8.958469 15.407260 9.337062
v 8.969335 -15.382790 9.345835
v 6.091405 -6.358021 9.416676
v -8.909137 -15.532325 9.315059
v 8.950224 15.526549 9.289824
v -7.891900 -3.376125 9.204806
v -17.669174 -0.035900 9.363415
v 18.033676 -0.002087 9.320217
v 8.509401 0.775481 9.303290
v -5.379622 6.561525 9.195698
v -1.455007 -8.485501 9.358561
v 4.278807 7.591726 9.240135
v 9.051910 -15.538604 -9.322286
v -8.692199 15.561123 -9.323039
v 17.854559 -0.015212 -9.334368
v 5.964402 6.399689 -9.206586
v -17.851852 0.000517 -9.319084
v -7.899096 2.878860 -9.222564
v -6.741198 -5.092096 -9.230904
v -0.012410 -8.353932 -9.155231
v 5.572762 -6.465865 -9.183150
v 8.405436 -0.742859 -9.117046
v 9.156615 15.378796 -9.323215
v -8.787683 -15.383934 -9.342331
v -2.892315 8.009645 -9.230769
vn 0.5203 0.1875 0.8332
vn -0.3988 -0.6861 0.6084
vn 0.1010 0.5606 0.8219
vn 0.7940 0.0015 0.6079
vn -0.5857 -0.0517 0.8089
vn -0.3849 0.4079 0.8280
vn 0.3942 -0.6844 0.6133
vn -0.2452 -0.4937 0.8343
vn 0.3912 0.6874 0.6119
vn 0.3550 -0.4154 0.8375
vn -0.7841 -0.0012 0.6206
vn -0.4003 0.6790 0.6154
vn -0.3685 -0.4260 -0.8263
vn -0.6163 0.0439 -0.7863
vn 0.1752 -0.5498 -0.8167
vn 0.4687 0.3427 -0.8141
vn 0.5583 -0.1831 -0.8092
vn 0.0329 0.6133 -0.7892
vn -0.3989 0.4584 -0.7942
vn 0.7841 -0.0011 -0.6206
vn 0.4014 0.6784 -0.6154
vn 0.3944 -0.6846 -0.6131
vn -0.3910 -0.6800 -0.6202
vn -0.3875 0.6872 -0.6145
vn -0.7914 0.0005 -0.6112
usemtl Default_OBJ.018
s 1
f 6//1 4//2 11//3
f 8//4 9//5 3//6
f 8//4 3//6 2//7
f 8//4 12//8 9//5
f 5//9 12//8 8//4
f 11//3 2//7 3//6
f 6//1 10//10 7//11
f 7//11 10//10 1//12
f 12//8 1//12 10//10
f 5//9 1//12 12//8
f 4//2 6//1 7//11
f 4//2 2//7 11//3
f 9//5 12//8 16//13
f 9//5 16//13 22//14
f 12//8 25//15 16//13
f 6//1 19//16 18//17
f 11//3 20//18 19//16
f 3//6 21//19 20//18
f 3//6 22//14 21//19
f 3//6 9//5 22//14
f 11//3 3//6 20//18
f 6//1 11//3 19//16
f 10//10 6//1 18//17
f 12//8 10//10 25//15
f 8//4 15//20 23//21
f 8//4 23//21 5//9
f 2//7 13//22 8//4
f 4//2 24//23 13//22
f 4//2 13//22 2//7
f 5//9 23//21 14//24
f 5//9 14//24 1//12
f 7//11 17//25 4//2
f 7//11 1//12 17//25
f 1//12 14//24 17//25
f 10//10 18//17 25//15
f 8//4 13//22 15//20
f 4//2 17//25 24//23
f 17//25 19//16 24//23
f 13//22 21//19 15//20
f 15//20 16//13 23//21
f 14//24 18//17 17//25
f 21//19 22//14 15//20
f 20//18 21//19 13//22
f 13//22 24//23 20//18
f 20//18 24//23 19//16
f 19//16 17//25 18//17
f 18//17 14//24 25//15
f 14//24 23//21 25//15
f 25//15 23//21 16//13
f 15//20 22//14 16//13
