# Blender v3.6.2 OBJ File: ''
# www.blender.org
mtllib wedge_short_stout_decimated.mtl
o my_mesh_wedge_short_stout
v -9.230041 -6.131119 12.611964
v -9.054890 11.255186 12.659409
v 13.524001 -5.816343 12.690104
v 13.504007 -6.269959 12.549988
v 13.808804 -5.453032 12.476536
v 14.053144 -5.941215 12.326174
v -8.775970 11.651124 12.237212
v -9.266592 11.596894 12.166241
v -9.228426 -6.519499 12.172985
v -9.652772 11.142140 12.252309
v -9.655471 -6.074864 12.162831
v 13.727746 -6.487260 12.123351
v 13.979629 -5.336124 12.068756
v 14.129969 -5.930263 -12.093058
v -9.652648 -6.159671 -12.066554
v 13.640685 -6.465938 -12.348826
v 13.902412 -5.307474 -12.229458
v -9.593980 11.301256 -12.245427
v -9.088209 11.660443 -12.111486
v -8.675220 11.632055 -12.183508
v -9.068332 11.310756 -12.653770
v -9.192204 -6.473561 -12.299999
v 13.888794 -5.673065 -12.516576
v -9.333101 -6.021079 -12.609734
v 13.499304 -5.894783 -12.694099
vn -0.1634 0.4078 0.8984
vn -0.3586 -0.3711 0.8566
vn 0.2829 -0.0407 0.9583
vn 0.2331 -0.6032 0.7628
vn 0.5922 0.4019 0.6984
vn 0.8774 -0.1913 0.4400
vn -0.8551 0.3056 0.4189
vn 0.2415 0.8922 0.3816
vn -0.8875 -0.3287 0.3230
vn -0.4508 0.8449 0.2880
vn -0.3541 -0.8803 0.3156
vn 0.4646 -0.8507 0.2458
vn 0.8321 0.5191 0.1954
vn -0.8208 0.4183 -0.3891
vn -0.8764 -0.4222 -0.2318
vn 0.9542 -0.1960 -0.2262
vn 0.7377 0.5817 -0.3426
vn 0.3871 -0.7972 -0.4632
vn 0.3278 0.8736 -0.3596
vn -0.2552 0.9379 -0.2350
vn -0.2873 -0.8563 -0.4291
vn 0.6521 0.1289 -0.7471
vn -0.4566 -0.2747 -0.8462
vn -0.1754 0.4523 -0.8744
vn 0.2448 -0.1546 -0.9572
usemtl Default_OBJ.020
s 1
f 2//1 1//2 3//3
f 3//3 1//2 4//4
f 3//3 5//5 2//1
f 3//3 4//4 6//6
f 3//3 6//6 5//5
f 2//1 10//7 1//2
f 2//1 5//5 7//8
f 1//2 10//7 11//9
f 2//1 7//8 8//10
f 1//2 9//11 4//4
f 2//1 8//10 10//7
f 6//6 4//4 12//12
f 1//2 11//9 9//11
f 4//4 9//11 12//12
f 5//5 6//6 13//13
f 5//5 13//13 7//8
f 10//7 18//14 15//15
f 10//7 15//15 11//9
f 13//13 14//16 17//17
f 12//12 16//18 14//16
f 6//6 12//12 14//16
f 13//13 6//6 14//16
f 13//13 17//17 20//19
f 8//10 19//20 18//14
f 7//8 20//19 19//20
f 8//10 7//8 19//20
f 10//7 8//10 18//14
f 9//11 11//9 15//15
f 9//11 15//15 22//21
f 13//13 20//19 7//8
f 9//11 22//21 16//18
f 12//12 9//11 16//18
f 14//16 23//22 17//17
f 15//15 18//14 24//23
f 19//20 20//19 21//24
f 19//20 21//24 18//14
f 15//15 24//23 22//21
f 14//16 16//18 23//22
f 20//19 17//17 21//24
f 17//17 23//22 21//24
f 18//14 21//24 24//23
f 22//21 24//23 16//18
f 16//18 25//25 23//22
f 16//18 24//23 25//25
f 23//22 25//25 21//24
f 25//25 24//23 21//24
